<svg width="32" height="32" viewBox="0 0 32 32" fill="none" xmlns="http://www.w3.org/2000/svg">
<path d="M2.5 30.5L6.501 26.499" stroke="#434343" stroke-width="1.5" stroke-miterlimit="10" stroke-linecap="round" stroke-linejoin="round"/>
<path d="M14.5 14.5L11.5 17.5" stroke="#434343" stroke-width="1.5" stroke-miterlimit="10" stroke-linecap="round" stroke-linejoin="round"/>
<path d="M18.5 18.5L15.5 21.5" stroke="#434343" stroke-width="1.5" stroke-miterlimit="10" stroke-linecap="round" stroke-linejoin="round"/>
<path d="M8.66901 14.6689L6.50002 16.8359C5.21849 18.1175 4.49854 19.8556 4.49854 21.6679C4.49854 23.4803 5.21849 25.2184 6.50002 26.4999C7.78154 27.7815 9.51966 28.5014 11.332 28.5014C13.1444 28.5014 14.8825 27.7815 16.164 26.4999L18.331 24.3319L8.66901 14.6689Z" stroke="#434343" stroke-width="1.5" stroke-miterlimit="10" stroke-linecap="round" stroke-linejoin="round"/>
<path d="M30.5 2.5L26.499 6.501" stroke="#434343" stroke-width="1.5" stroke-miterlimit="10" stroke-linecap="round" stroke-linejoin="round"/>
<path d="M24.3309 18.331L26.4999 16.164C27.7815 14.8825 28.5014 13.1444 28.5014 11.332C28.5014 9.51966 27.7815 7.78154 26.4999 6.50002C25.2184 5.21849 23.4803 4.49854 21.6679 4.49854C19.8556 4.49854 18.1175 5.21849 16.8359 6.50002L14.6689 8.66901L24.3309 18.331Z" stroke="#434343" stroke-width="1.5" stroke-miterlimit="10" stroke-linecap="round" stroke-linejoin="round"/>
</svg>
